<svg width="15" height="14" viewBox="0 0 15 14" fill="none" xmlns="http://www.w3.org/2000/svg">
<path fill-rule="evenodd" clip-rule="evenodd" d="M11.1465 0.538032L11.1473 1.06277C13.2898 1.21389 14.7051 2.52784 14.7074 4.54283L14.7158 10.4409C14.7189 12.6378 13.1853 13.9895 10.7272 13.993L4.72284 14C2.28008 14.0028 0.727344 12.6189 0.724273 10.4157L0.715825 4.5869C0.712754 2.55862 2.07812 1.24818 4.22062 1.07117L4.21985 0.546428C4.21909 0.238582 4.4725 0.00699808 4.81039 0.00699808C5.14827 0.00629843 5.40169 0.237183 5.40245 0.545029L5.40322 1.03478L9.96468 1.02919L9.96391 0.539431C9.96315 0.231586 10.2166 0.000701235 10.5544 1.58584e-06C10.8847 -0.000698064 11.1457 0.230186 11.1465 0.538032ZM1.89931 4.80314L13.5257 4.78914V4.54427C13.4926 3.04002 12.6541 2.25082 11.1489 2.13327L11.1497 2.672C11.1497 2.97285 10.8894 3.21143 10.5592 3.21143C10.2213 3.21213 9.9671 2.97425 9.9671 2.6734L9.96634 2.10669L5.40488 2.11228L5.40565 2.6783C5.40565 2.97985 5.153 3.21773 4.81511 3.21773C4.47723 3.21843 4.22305 2.98125 4.22305 2.6797L4.22228 2.14097C2.72483 2.276 1.89624 3.06801 1.89855 4.58555L1.89931 4.80314ZM10.2358 7.98297V7.99066C10.2435 8.3125 10.5353 8.55668 10.8893 8.54968C11.2349 8.54199 11.5106 8.27542 11.5029 7.95358C11.4867 7.64574 11.2095 7.39456 10.8647 7.39526C10.5115 7.40226 10.235 7.66113 10.2358 7.98297ZM10.8701 11.1244C10.5169 11.1174 10.232 10.8523 10.2312 10.5304C10.2235 10.2086 10.5069 9.94202 10.8601 9.93432H10.8678C11.2287 9.93432 11.5213 10.1995 11.5213 10.5283C11.5221 10.8572 11.2303 11.1237 10.8701 11.1244ZM7.07201 7.99424C7.08737 8.31608 7.37995 8.56726 7.73319 8.55326C8.07876 8.53857 8.35444 8.2727 8.33908 7.95086C8.33063 7.63602 8.0465 7.39115 7.70094 7.39184C7.34769 7.40584 7.07124 7.6724 7.07201 7.99424ZM7.73617 11.0931C7.38293 11.1071 7.09112 10.8559 7.07499 10.534C7.07499 10.2122 7.35068 9.94633 7.70392 9.93164C8.04948 9.93094 8.33438 10.1758 8.34206 10.49C8.35819 10.8125 8.08174 11.0784 7.73617 11.0931ZM3.90808 8.01866C3.92344 8.3405 4.21602 8.59237 4.56926 8.57768C4.91483 8.56368 5.19051 8.29712 5.17438 7.97528C5.1667 7.66044 4.88257 7.41556 4.53624 7.41626C4.183 7.43025 3.90731 7.69682 3.90808 8.01866ZM4.57253 11.0965C4.21928 11.1112 3.92747 10.8593 3.91135 10.5375C3.91058 10.2156 4.18703 9.94905 4.54028 9.93506C4.88584 9.93436 5.17074 10.1792 5.17842 10.4941C5.19455 10.8159 4.91886 11.0825 4.57253 11.0965Z" fill="#4285F4"/>
</svg>
