<svg width="10" height="10" viewBox="0 0 10 10" fill="none" xmlns="http://www.w3.org/2000/svg">
<path fill-rule="evenodd" clip-rule="evenodd" d="M8.45297 2.18473C8.61506 2.18473 8.75 2.31931 8.75 2.49056V2.64889C8.75 2.81598 8.61506 2.95472 8.45297 2.95472H1.54744C1.38494 2.95472 1.25 2.81598 1.25 2.64889V2.49056C1.25 2.31931 1.38494 2.18473 1.54744 2.18473H2.76232C3.0091 2.18473 3.22388 2.00932 3.27939 1.76182L3.34301 1.47766C3.44189 1.09058 3.76729 0.833496 4.1397 0.833496H5.8603C6.22866 0.833496 6.5577 1.09058 6.65293 1.45724L6.72101 1.7614C6.77612 2.00932 6.9909 2.18473 7.23809 2.18473H8.45297ZM7.83576 7.97267C7.9626 6.7906 8.18466 3.98229 8.18466 3.95396C8.19277 3.86813 8.16481 3.78688 8.10929 3.72146C8.04972 3.66021 7.97435 3.62396 7.89128 3.62396H2.11189C2.02841 3.62396 1.94898 3.66021 1.89387 3.72146C1.83795 3.78688 1.81039 3.86813 1.81445 3.95396C1.81519 3.95916 1.82316 4.05808 1.83648 4.22346C1.89566 4.95815 2.06049 7.00439 2.167 7.97267C2.24237 8.68599 2.71041 9.13432 3.38836 9.15057C3.91151 9.16265 4.45047 9.16682 5.00158 9.16682C5.52068 9.16682 6.04789 9.16265 6.58725 9.15057C7.2887 9.13849 7.75634 8.69808 7.83576 7.97267Z" fill="#E71D36"/>
</svg>
