<svg width="19" height="5" viewBox="0 0 19 5" fill="none" xmlns="http://www.w3.org/2000/svg">
<path d="M18.3043 0.732238C17.3768 -0.244069 15.8731 -0.244069 14.9456 0.732238C14.0181 1.70855 14.0181 3.29146 14.9456 4.26777C15.8731 5.24408 17.3768 5.24408 18.3043 4.26777C19.2318 3.2915 19.2318 1.70858 18.3043 0.732238Z" fill="#B3B3BF"/>
<path d="M11.1793 0.732238C10.2518 -0.244069 8.74806 -0.244069 7.82057 0.732238C6.89308 1.70855 6.89308 3.29146 7.82057 4.26777C8.74806 5.24408 10.2518 5.24408 11.1793 4.26777C12.1068 3.2915 12.1068 1.70858 11.1793 0.732238Z" fill="#B3B3BF"/>
<path d="M4.05438 0.732238C3.12689 -0.244069 1.62312 -0.244069 0.695633 0.732238C-0.231857 1.70855 -0.231857 3.29146 0.695633 4.26777C1.62312 5.24408 3.12689 5.24408 4.05438 4.26777C4.98187 3.2915 4.98187 1.70858 4.05438 0.732238Z" fill="#B3B3BF"/>
</svg>
